{
  "accessors": [
    {
      "bufferView": 0,
      "componentType": 5126,
      "count": 3512,
      "type": "VEC3",
      "max": [
        0.64145392179489136,
        3.2394189834594727,
        1.3850958347320557
      ],
      "min": [
        -0.64145255088806152,
        -2.2888182229507947E-06,
        -1.3850952386856079
      ]
    },
    {
      "bufferView": 1,
      "componentType": 5126,
      "count": 3512,
      "type": "VEC3",
      "max": [
        1.0,
        1.0,
        1.0
      ],
      "min": [
        -1.0,
        -1.0,
        -1.0
      ]
    },
    {
      "bufferView": 2,
      "componentType": 5126,
      "count": 3512,
      "type": "VEC4",
      "max": [
        1.0,
        0.99999988079071045,
        1.0,
        1.0
      ],
      "min": [
        -1.0,
        -0.999957799911499,
        -1.0,
        -1.0
      ]
    },
    {
      "bufferView": 3,
      "componentType": 5126,
      "count": 3512,
      "type": "VEC2",
      "max": [
        0.99375784397125244,
        0.99375778436660767
      ],
      "min": [
        0.0062422454357147217,
        0.0062421560287475586
      ]
    },
    {
      "bufferView": 4,
      "componentType": 5126,
      "count": 3512,
      "type": "VEC2",
      "max": [
        0.99900180101394653,
        0.99900197982788086
      ],
      "min": [
        0.00099799118470400572,
        0.00099802017211914063
      ]
    },
    {
      "bufferView": 5,
      "componentType": 5126,
      "count": 3512,
      "type": "VEC4",
      "max": [
        1.0,
        1.0,
        1.0,
        1.0
      ],
      "min": [
        0.0,
        0.0,
        0.0,
        0.0
      ]
    },
    {
      "bufferView": 6,
      "componentType": 5123,
      "count": 13128,
      "type": "SCALAR",
      "max": [
        3511.0
      ],
      "min": [
        0.0
      ]
    },
    {
      "bufferView": 7,
      "componentType": 5123,
      "count": 36,
      "type": "SCALAR",
      "max": [
        1846.0
      ],
      "min": [
        1821.0
      ]
    }
  ],
  "asset": {
    "version": "2.0"
  },
  "buffers": [
    {
      "uri": "prop_computerStation_B.bin",
      "byteLength": 279192
    }
  ],
  "bufferViews": [
    {
      "buffer": 0,
      "byteLength": 42144
    },
    {
      "buffer": 0,
      "byteOffset": 42144,
      "byteLength": 42144
    },
    {
      "buffer": 0,
      "byteOffset": 84288,
      "byteLength": 56192
    },
    {
      "buffer": 0,
      "byteOffset": 140480,
      "byteLength": 28096
    },
    {
      "buffer": 0,
      "byteOffset": 168576,
      "byteLength": 28096
    },
    {
      "buffer": 0,
      "byteOffset": 196672,
      "byteLength": 56192
    },
    {
      "buffer": 0,
      "byteOffset": 252864,
      "byteLength": 26256
    },
    {
      "buffer": 0,
      "byteOffset": 279120,
      "byteLength": 72
    }
  ],
  "images": [
    {
      "uri": "prop_computerStation_B_dff.png",
      "name": "prop_computerStation_B_dff"
    }
  ],
  "materials": [
    {
      "pbrMetallicRoughness": {
        "baseColorTexture": {
          "index": 0
        },
        "metallicFactor": 0.10000000149011612,
        "roughnessFactor": 0.5
      },
      "name": "prop_computerStation_B_mat"
    },
    {
      "pbrMetallicRoughness": {
        "baseColorTexture": {
          "index": 0
        },
        "metallicFactor": 0.10000000149011612,
        "roughnessFactor": 0.5
      },
      "name": "prop_computerStation_B_fx"
    }
  ],
  "meshes": [
    {
      "primitives": [
        {
          "attributes": {
            "POSITION": 0,
            "NORMAL": 1,
            "TANGENT": 2,
            "TEXCOORD_0": 3,
            "TEXCOORD_1": 4,
            "COLOR_0": 5
          },
          "indices": 6,
          "material": 0
        },
        {
          "attributes": {
            "POSITION": 0,
            "NORMAL": 1,
            "TANGENT": 2,
            "TEXCOORD_0": 3,
            "TEXCOORD_1": 4,
            "COLOR_0": 5
          },
          "indices": 7,
          "material": 1
        }
      ],
      "name": "prop_computerStation_B"
    }
  ],
  "nodes": [
    {
      "mesh": 0,
      "rotation": [
        0.0,
        0.0,
        0.0,
        -1.0
      ],
      "scale": [
        0.85,
        0.85,
        0.85
      ],
      "name": "prop_computerStation_B"
    }
  ],
  "samplers": [
    {
      "minFilter": 9987
    }
  ],
  "scene": 0,
  "scenes": [
    {
      "nodes": [
        0
      ],
      "name": "prop_computerStation_B"
    }
  ],
  "textures": [
    {
      "sampler": 0,
      "source": 0,
      "name": "prop_computerStation_B_dff"
    }
  ]
}